<?xml version="1.0" encoding="UTF-8"?>
<svg xmlns="http://www.w3.org/2000/svg" width="480" height="536" viewBox="0 0 480 536" role="img" aria-labelledby="t d">
<title id="t">Trois cycles FIFO, jour par jour : au site ou à la maison</title>
<desc id="d">Trois bandes-calendrier alignées sur le même axe de jours, une par cycle, avec une case par jour, les cases groupées par semaine. Légende : case foncée et casque de chantier, un jour au site ; case claire bordée de bleu et maison, un jour à la maison. 14/14 : 14 jours au site, puis 14 jours à la maison. 20/10 : 20 jours au site, puis 10 jours à la maison. 21/7 : 21 jours au site, puis 7 jours à la maison. Le 14/14 et le 21/7 couvrent la même période ; le 20/10 est un peu plus long. Au-dessus de chaque bande, à droite, la récupération en congé indiquée par la page : suffisante pour la majorité (14/14), souvent incomplète (20/10), rarement suffisante (21/7).</desc>
<rect width="480" height="536" fill="#fbfaf6"/>
<g font-family="system-ui, -apple-system, 'Segoe UI', Roboto, 'Noto Sans', Arial, sans-serif">
<text x="24" y="46" font-size="26" font-weight="700" fill="#1f2328">Trois cycles FIFO,</text>
<text x="24" y="78" font-size="26" font-weight="700" fill="#1f2328">jour par jour</text>
<rect x="24" y="100" width="11.9" height="27" rx="2" fill="#4b535c"/>
<g transform="translate(56 112)"><path d="M-10.5 3C-10.5 -5.5 -5.5 -10.5 0 -10.5C5.5 -10.5 10.5 -5.5 10.5 3Z" fill="#4b535c"/><rect x="-14.5" y="2.5" width="29" height="4.5" rx="2.25" fill="#4b535c"/><path d="M-2.6 -9.6V2.6M2.6 -9.6V2.6" stroke="#fbfaf6" stroke-width="2.5"/></g>
<text x="77" y="120" font-size="19" fill="#1f2328">jour au site</text>
<rect x="219.25" y="101.25" width="9.4" height="24.5" rx="1.5" fill="#e1ecfa" stroke="#1565c0" stroke-width="2.5"/>
<g transform="translate(249 113)"><path d="M-12.5 -0.5L0 -12L12.5 -0.5Z" fill="#1565c0" stroke="#1565c0" stroke-width="2.5" stroke-linejoin="round"/><rect x="-9" y="-2" width="18" height="13" fill="#1565c0"/><rect x="-2.75" y="3.5" width="5.5" height="7.5" fill="#fbfaf6"/></g>
<text x="270" y="120" font-size="19" fill="#1565c0">jour à la maison</text>
<text x="456" y="162" font-size="19" fill="#4b535c" text-anchor="end">Récupération en congé</text>
<!-- Cycle 14/14 : 14 jours au site, 14 jours à la maison -->
<text x="24" y="196" font-size="24" font-weight="700" fill="#1f2328">14/14</text>
<text x="456" y="196" font-size="19" fill="#1f2328" text-anchor="end">suffisante pour la majorité</text>
<g fill="#4b535c"><rect x="24" y="208" width="11.9" height="38" rx="2"/><rect x="37.9" y="208" width="11.9" height="38" rx="2"/><rect x="51.8" y="208" width="11.9" height="38" rx="2"/><rect x="65.7" y="208" width="11.9" height="38" rx="2"/><rect x="79.6" y="208" width="11.9" height="38" rx="2"/><rect x="93.5" y="208" width="11.9" height="38" rx="2"/><rect x="107.4" y="208" width="11.9" height="38" rx="2"/><rect x="125.3" y="208" width="11.9" height="38" rx="2"/><rect x="139.2" y="208" width="11.9" height="38" rx="2"/><rect x="153.1" y="208" width="11.9" height="38" rx="2"/><rect x="167" y="208" width="11.9" height="38" rx="2"/><rect x="180.9" y="208" width="11.9" height="38" rx="2"/><rect x="194.8" y="208" width="11.9" height="38" rx="2"/><rect x="208.7" y="208" width="11.9" height="38" rx="2"/></g>
<g fill="#e1ecfa" stroke="#1565c0" stroke-width="2.5"><rect x="227.85" y="209.25" width="9.4" height="35.5" rx="1.5"/><rect x="241.75" y="209.25" width="9.4" height="35.5" rx="1.5"/><rect x="255.65" y="209.25" width="9.4" height="35.5" rx="1.5"/><rect x="269.55" y="209.25" width="9.4" height="35.5" rx="1.5"/><rect x="283.45" y="209.25" width="9.4" height="35.5" rx="1.5"/><rect x="297.35" y="209.25" width="9.4" height="35.5" rx="1.5"/><rect x="311.25" y="209.25" width="9.4" height="35.5" rx="1.5"/><rect x="329.15" y="209.25" width="9.4" height="35.5" rx="1.5"/><rect x="343.05" y="209.25" width="9.4" height="35.5" rx="1.5"/><rect x="356.95" y="209.25" width="9.4" height="35.5" rx="1.5"/><rect x="370.85" y="209.25" width="9.4" height="35.5" rx="1.5"/><rect x="384.75" y="209.25" width="9.4" height="35.5" rx="1.5"/><rect x="398.65" y="209.25" width="9.4" height="35.5" rx="1.5"/><rect x="412.55" y="209.25" width="9.4" height="35.5" rx="1.5"/></g>
<g transform="translate(37.5 265)"><path d="M-10.5 3C-10.5 -5.5 -5.5 -10.5 0 -10.5C5.5 -10.5 10.5 -5.5 10.5 3Z" fill="#4b535c"/><rect x="-14.5" y="2.5" width="29" height="4.5" rx="2.25" fill="#4b535c"/><path d="M-2.6 -9.6V2.6M2.6 -9.6V2.6" stroke="#fbfaf6" stroke-width="2.5"/></g>
<text x="58" y="272" font-size="19" fill="#1f2328">14 jours</text>
<text x="393.2" y="272" font-size="19" fill="#1565c0" text-anchor="end">14 jours</text>
<g transform="translate(410.7 266)"><path d="M-12.5 -0.5L0 -12L12.5 -0.5Z" fill="#1565c0" stroke="#1565c0" stroke-width="2.5" stroke-linejoin="round"/><rect x="-9" y="-2" width="18" height="13" fill="#1565c0"/><rect x="-2.75" y="3.5" width="5.5" height="7.5" fill="#fbfaf6"/></g>
<!-- Cycle 20/10 : 20 jours au site, 10 jours à la maison -->
<text x="24" y="320" font-size="24" font-weight="700" fill="#1f2328">20/10</text>
<text x="456" y="320" font-size="19" fill="#1f2328" text-anchor="end">souvent incomplète</text>
<g fill="#4b535c"><rect x="24" y="332" width="11.9" height="38" rx="2"/><rect x="37.9" y="332" width="11.9" height="38" rx="2"/><rect x="51.8" y="332" width="11.9" height="38" rx="2"/><rect x="65.7" y="332" width="11.9" height="38" rx="2"/><rect x="79.6" y="332" width="11.9" height="38" rx="2"/><rect x="93.5" y="332" width="11.9" height="38" rx="2"/><rect x="107.4" y="332" width="11.9" height="38" rx="2"/><rect x="125.3" y="332" width="11.9" height="38" rx="2"/><rect x="139.2" y="332" width="11.9" height="38" rx="2"/><rect x="153.1" y="332" width="11.9" height="38" rx="2"/><rect x="167" y="332" width="11.9" height="38" rx="2"/><rect x="180.9" y="332" width="11.9" height="38" rx="2"/><rect x="194.8" y="332" width="11.9" height="38" rx="2"/><rect x="208.7" y="332" width="11.9" height="38" rx="2"/><rect x="226.6" y="332" width="11.9" height="38" rx="2"/><rect x="240.5" y="332" width="11.9" height="38" rx="2"/><rect x="254.4" y="332" width="11.9" height="38" rx="2"/><rect x="268.3" y="332" width="11.9" height="38" rx="2"/><rect x="282.2" y="332" width="11.9" height="38" rx="2"/><rect x="296.1" y="332" width="11.9" height="38" rx="2"/></g>
<g fill="#e1ecfa" stroke="#1565c0" stroke-width="2.5"><rect x="311.25" y="333.25" width="9.4" height="35.5" rx="1.5"/><rect x="329.15" y="333.25" width="9.4" height="35.5" rx="1.5"/><rect x="343.05" y="333.25" width="9.4" height="35.5" rx="1.5"/><rect x="356.95" y="333.25" width="9.4" height="35.5" rx="1.5"/><rect x="370.85" y="333.25" width="9.4" height="35.5" rx="1.5"/><rect x="384.75" y="333.25" width="9.4" height="35.5" rx="1.5"/><rect x="398.65" y="333.25" width="9.4" height="35.5" rx="1.5"/><rect x="412.55" y="333.25" width="9.4" height="35.5" rx="1.5"/><rect x="430.45" y="333.25" width="9.4" height="35.5" rx="1.5"/><rect x="444.35" y="333.25" width="9.4" height="35.5" rx="1.5"/></g>
<g transform="translate(37.5 389)"><path d="M-10.5 3C-10.5 -5.5 -5.5 -10.5 0 -10.5C5.5 -10.5 10.5 -5.5 10.5 3Z" fill="#4b535c"/><rect x="-14.5" y="2.5" width="29" height="4.5" rx="2.25" fill="#4b535c"/><path d="M-2.6 -9.6V2.6M2.6 -9.6V2.6" stroke="#fbfaf6" stroke-width="2.5"/></g>
<text x="58" y="396" font-size="19" fill="#1f2328">20 jours</text>
<text x="425" y="396" font-size="19" fill="#1565c0" text-anchor="end">10 jours</text>
<g transform="translate(442.5 390)"><path d="M-12.5 -0.5L0 -12L12.5 -0.5Z" fill="#1565c0" stroke="#1565c0" stroke-width="2.5" stroke-linejoin="round"/><rect x="-9" y="-2" width="18" height="13" fill="#1565c0"/><rect x="-2.75" y="3.5" width="5.5" height="7.5" fill="#fbfaf6"/></g>
<!-- Cycle 21/7 : 21 jours au site, 7 jours à la maison -->
<text x="24" y="444" font-size="24" font-weight="700" fill="#1f2328">21/7</text>
<text x="456" y="444" font-size="19" fill="#1f2328" text-anchor="end">rarement suffisante</text>
<g fill="#4b535c"><rect x="24" y="456" width="11.9" height="38" rx="2"/><rect x="37.9" y="456" width="11.9" height="38" rx="2"/><rect x="51.8" y="456" width="11.9" height="38" rx="2"/><rect x="65.7" y="456" width="11.9" height="38" rx="2"/><rect x="79.6" y="456" width="11.9" height="38" rx="2"/><rect x="93.5" y="456" width="11.9" height="38" rx="2"/><rect x="107.4" y="456" width="11.9" height="38" rx="2"/><rect x="125.3" y="456" width="11.9" height="38" rx="2"/><rect x="139.2" y="456" width="11.9" height="38" rx="2"/><rect x="153.1" y="456" width="11.9" height="38" rx="2"/><rect x="167" y="456" width="11.9" height="38" rx="2"/><rect x="180.9" y="456" width="11.9" height="38" rx="2"/><rect x="194.8" y="456" width="11.9" height="38" rx="2"/><rect x="208.7" y="456" width="11.9" height="38" rx="2"/><rect x="226.6" y="456" width="11.9" height="38" rx="2"/><rect x="240.5" y="456" width="11.9" height="38" rx="2"/><rect x="254.4" y="456" width="11.9" height="38" rx="2"/><rect x="268.3" y="456" width="11.9" height="38" rx="2"/><rect x="282.2" y="456" width="11.9" height="38" rx="2"/><rect x="296.1" y="456" width="11.9" height="38" rx="2"/><rect x="310" y="456" width="11.9" height="38" rx="2"/></g>
<g fill="#e1ecfa" stroke="#1565c0" stroke-width="2.5"><rect x="329.15" y="457.25" width="9.4" height="35.5" rx="1.5"/><rect x="343.05" y="457.25" width="9.4" height="35.5" rx="1.5"/><rect x="356.95" y="457.25" width="9.4" height="35.5" rx="1.5"/><rect x="370.85" y="457.25" width="9.4" height="35.5" rx="1.5"/><rect x="384.75" y="457.25" width="9.4" height="35.5" rx="1.5"/><rect x="398.65" y="457.25" width="9.4" height="35.5" rx="1.5"/><rect x="412.55" y="457.25" width="9.4" height="35.5" rx="1.5"/></g>
<g transform="translate(37.5 513)"><path d="M-10.5 3C-10.5 -5.5 -5.5 -10.5 0 -10.5C5.5 -10.5 10.5 -5.5 10.5 3Z" fill="#4b535c"/><rect x="-14.5" y="2.5" width="29" height="4.5" rx="2.25" fill="#4b535c"/><path d="M-2.6 -9.6V2.6M2.6 -9.6V2.6" stroke="#fbfaf6" stroke-width="2.5"/></g>
<text x="58" y="520" font-size="19" fill="#1f2328">21 jours</text>
<text x="393.2" y="520" font-size="19" fill="#1565c0" text-anchor="end">7 jours</text>
<g transform="translate(410.7 514)"><path d="M-12.5 -0.5L0 -12L12.5 -0.5Z" fill="#1565c0" stroke="#1565c0" stroke-width="2.5" stroke-linejoin="round"/><rect x="-9" y="-2" width="18" height="13" fill="#1565c0"/><rect x="-2.75" y="3.5" width="5.5" height="7.5" fill="#fbfaf6"/></g>
</g>
</svg>
